<?xml version="1.0" standalone="no"?><!DOCTYPE svg PUBLIC "-//W3C//DTD SVG 1.1//EN" "http://www.w3.org/Graphics/SVG/1.1/DTD/svg11.dtd"><svg t="1601379298835" class="icon" viewBox="0 0 1024 1024" version="1.1" xmlns="http://www.w3.org/2000/svg" p-id="3194" width="500" height="500" xmlns:xlink="http://www.w3.org/1999/xlink"><defs><style type="text/css"></style></defs><path d="M648.533333 740.266667c6.4 0 10.666667-2.133333 17.066667-4.266667C806.4 676.266667 896 537.6 896 384c0-211.2-172.8-384-384-384S128 172.8 128 384c0 145.066667 81.066667 275.2 209.066667 341.333333 21.333333 10.666667 46.933333 2.133333 57.6-19.2s2.133333-46.933333-19.2-57.6C275.2 599.466667 213.333333 497.066667 213.333333 384c0-164.266667 134.4-298.666667 298.666667-298.666667s298.666667 134.4 298.666667 298.666667c0 119.466667-70.4 226.133333-179.2 273.066667-21.333333 8.533333-32 34.133333-21.333334 55.466666 6.4 17.066667 21.333333 27.733333 38.4 27.733334" fill="#222222" p-id="3195"></path><path d="M332.8 951.466667C420.266667 864 469.333333 746.666667 469.333333 620.8v-72.533333c-72.533333-19.2-128-85.333333-128-164.266667 0-93.866667 76.8-170.666667 170.666667-170.666667s170.666667 76.8 170.666667 170.666667c0 78.933333-55.466667 145.066667-128 164.266667v72.533333c0 147.2-57.6 285.866667-162.133334 390.4-8.533333 8.533333-19.2 12.8-29.866666 12.8s-21.333333-4.266667-29.866667-12.8c-17.066667-17.066667-17.066667-42.666667 0-59.733333zM426.666667 384c0 46.933333 38.4 85.333333 85.333333 85.333333s85.333333-38.4 85.333333-85.333333-38.4-85.333333-85.333333-85.333333-85.333333 38.4-85.333333 85.333333z" fill="#222222" p-id="3196"></path></svg>